<svg width="24" height="24" viewBox="0 0 24 24" fill="none" xmlns="http://www.w3.org/2000/svg">
<path d="M16.7295 14.0563C16.5586 14.0563 16.3915 14.0056 16.2494 13.9106C16.1073 13.8157 15.9965 13.6807 15.9311 13.5228C15.8657 13.3649 15.8486 13.1911 15.8819 13.0235C15.9153 12.8558 15.9976 12.7018 16.1184 12.581C16.2393 12.4601 16.3933 12.3778 16.5609 12.3444C16.7286 12.3111 16.9023 12.3282 17.0603 12.3936C17.2182 12.459 17.3532 12.5698 17.4481 12.7119C17.5431 12.854 17.5938 13.0211 17.5938 13.1921C17.5938 13.4213 17.5027 13.6411 17.3406 13.8032C17.1786 13.9652 16.9587 14.0563 16.7295 14.0563ZM7.21402 14.0563C7.04309 14.0563 6.876 14.0056 6.73387 13.9106C6.59175 13.8157 6.48098 13.6807 6.41557 13.5228C6.35016 13.3649 6.33305 13.1911 6.36639 13.0235C6.39974 12.8558 6.48205 12.7018 6.60291 12.581C6.72378 12.4601 6.87777 12.3778 7.04541 12.3444C7.21306 12.3111 7.38682 12.3282 7.54474 12.3936C7.70266 12.459 7.83763 12.5698 7.9326 12.7119C8.02756 12.854 8.07824 13.0211 8.07824 13.1921C8.07824 13.4213 7.98719 13.6411 7.82512 13.8032C7.66304 13.9652 7.44322 14.0563 7.21402 14.0563ZM17.0356 8.87092L18.7641 5.89113C18.7874 5.85033 18.8024 5.80532 18.8083 5.75869C18.8142 5.71206 18.8108 5.66473 18.7983 5.61942C18.7859 5.57411 18.7646 5.53171 18.7357 5.49465C18.7067 5.45759 18.6708 5.42661 18.6299 5.40349C18.589 5.38036 18.5439 5.36555 18.4972 5.3599C18.4506 5.35425 18.4033 5.35787 18.358 5.37056C18.3128 5.38325 18.2705 5.40475 18.2336 5.43383C18.1966 5.46292 18.1658 5.49901 18.1429 5.54003L16.3965 8.55583C15.0094 7.92197 13.5013 7.59641 11.9763 7.60158C10.4494 7.59784 8.93939 7.92011 7.5471 8.54683L5.80064 5.53103C5.75383 5.44915 5.6765 5.38913 5.58556 5.3641C5.49462 5.33908 5.39747 5.35109 5.31536 5.3975C5.23325 5.44391 5.17286 5.52095 5.14739 5.61177C5.12193 5.70258 5.13347 5.79979 5.17948 5.88212L6.89893 8.86191C5.41223 9.67275 4.15122 10.8416 3.23009 12.2626C2.30895 13.6836 1.75677 15.3119 1.62354 17.0001H22.302C22.1729 15.3131 21.6232 13.6853 20.7033 12.2653C19.7834 10.8453 18.5225 9.67834 17.0356 8.87092Z"/>
</svg>
