<svg width="24" height="24" viewBox="0 0 24 24" fill="none" xmlns="http://www.w3.org/2000/svg">
<rect opacity="0.01" width="24" height="24"/>
<path fill-rule="evenodd" clip-rule="evenodd" d="M14.5443 5.73687C15.0941 5.02713 15.5109 4.02397 15.3602 3C14.4615 3.06245 13.4112 3.63739 12.7983 4.38679C12.2396 5.0658 11.7805 6.0759 11.9598 7.05626C12.9422 7.08699 13.9561 6.49816 14.5443 5.73687ZM19.4 15.369C19.0069 16.2453 18.8177 16.6368 18.3112 17.413C17.6047 18.4964 16.6086 19.8455 15.373 19.8554C14.2763 19.8673 13.9935 19.1368 12.5047 19.1457C11.0158 19.1536 10.7055 19.8693 9.60681 19.8584C8.3722 19.8475 7.42825 18.6302 6.72177 17.5468C4.7452 14.5195 4.53729 10.9658 5.75615 9.07545C6.62323 7.73328 7.99087 6.9482 9.27574 6.9482C10.5833 6.9482 11.406 7.66984 12.4889 7.66984C13.5393 7.66984 14.1787 6.94622 15.6912 6.94622C16.8362 6.94622 18.0491 7.57369 18.9123 8.65615C16.0824 10.2164 16.5406 14.2816 19.4 15.369Z"/>
</svg>
